<?xml version="1.0" encoding="UTF-8"?>
<svg id="Capa_1" data-name="Capa 1" xmlns="http://www.w3.org/2000/svg" viewBox="0 0 498.22 498.15">
  <defs>
    <style>
      .cls-1 {
        fill: #00802d;
      }
    </style>
  </defs>
  <path class="cls-1" d="M214.22,1.07c-1.7,.7-3.2,1-3.5,.8-.2-.2-2.4,1.4-4.9,3.6-6.6,5.7-7.7,9.3-8.4,27.5l-.7,15.6,3.4-.5c1.9-.3,4.5-.8,5.9-1.1,4.8-1.2,11.6-2.3,18-3.1,6.5-.8,44.6-.8,50.5,0,2.8,.4,6.6,.9,8.5,1.2s5,.7,6.9,1,4.2,.9,5.2,1.5c1.1,.5,1.9,.7,1.9,.5,0-.3,1.1-.1,2.4,.3,2.3,.9,2.3,.8,3-5.7,.9-10.4,.7-22.1-.6-26.6-1.2-4.2-8.2-12.6-10.5-12.6-.7,0-1.3-.5-1.3-1,0-.6-.3-.9-.7-.8-.5,.1-2.8-.2-5.3-.6s-18.5-.8-35.6-1c-23.6-.2-31.9,0-34.2,1Z"/>
  <path class="cls-1" d="M377.52,46.47c-2.2,1.1-8.9,6.9-14.8,12.8l-10.9,10.9,9.9,6.5c16.5,10.9,32,24.7,46.8,41.8,4.1,4.7,15.4,20.6,16.8,23.7,1,2.4,1.3,2.2,12-8.4,5.9-5.9,11.7-12.5,12.8-14.5,2.6-5,2.6-14.6,0-19.6-2.8-5.4-49.7-51.7-54.3-53.6-5.2-2.2-13.4-2-18.3,.4Z"/>
  <path class="cls-1" d="M97.92,49.37c-6.8,4.4-50.5,48.9-52.3,53.3-2,4.7-2,12.8-.1,17.4,.8,1.9,6.5,8.7,12.8,15.1l11.3,11.5,3.9-6.3c7.6-12.3,18.5-25.6,31.1-38,12.5-12.1,27.5-24.3,34.1-27.4,1.8-.9,3.5-2,3.9-2.6,.9-1.5-19-21.5-23.8-24-2.5-1.3-5.8-1.9-10.1-1.9-5.3,0-7,.5-10.8,2.9Z"/>
  <path class="cls-1" d="M230.32,59.47c-61.4,6.5-114.3,37.7-147.1,86.9-32.7,48.8-40.6,107.9-22.1,163.6,19.8,59.5,70.4,107,132.5,124.5,19.5,5.5,33.8,7.4,55.4,7.4s35.9-1.9,55.4-7.4c36.7-10.3,70.5-31.6,95.4-60,56.2-64.2,62.5-157.2,15.3-227.8-35.9-53.7-95.1-85.9-161.1-87.7-8.5-.2-19.2,0-23.7,.5Z"/>
  <path class="cls-1" d="M14.82,197.27c-7.1,2.3-12.1,8.5-14.2,17.4-.3,1.4-.6,17.7-.6,36.1-.1,36.7-.1,36.6,6,42.7,6.5,6.6,7.9,6.9,33.8,7.3,8.9,.2,9.3,.1,8.7-1.8-4.2-15.2-5.8-32.2-5.2-55.2,.5-19.6,2.3-33.9,5.5-44.8l.9-3-15.3-.1c-10.8,0-16.6,.4-19.6,1.4Z"/>
  <path class="cls-1" d="M450.02,198.57c0,.8,.9,5.7,1.9,10.9s2.3,13.1,2.7,17.5c1,9.8,.6,40.8-.6,49-1.7,11.1-2.9,17.8-4.1,21.2-.7,2.2-.8,3.8-.2,4.4,1.1,1.1,30.2,.7,34.2-.4,4.2-1.1,11.8-9.5,12.9-14.1,.6-2.2,1.2-19.4,1.3-38.1,.3-37.4,.3-38-5.9-44.3-5.7-5.8-8.2-6.5-25.9-7-13.4-.4-16.3-.2-16.3,.9Z"/>
  <path class="cls-1" d="M423.72,359.77c-15,23.7-43.2,52-64.1,64.2-2.5,1.5-4.6,3-4.6,3.4,0,1.7,22,22.2,25.3,23.6,5.8,2.4,12.7,1.9,18.6-1.2,6.7-3.6,50.2-46.9,53.1-52.8,2.6-5.4,2.6-13.6,0-18.9-1.1-2.3-6.8-9-12.8-14.9l-10.8-10.8-4.7,7.4Z"/>
  <path class="cls-1" d="M59.82,366.17c-5.8,6-11.3,12.2-12.2,14-2.3,4.6-2.1,13.9,.5,18.8,1.1,2.2,12.5,14.5,25.2,27.4,25,25.1,29,28.1,37.8,28.1,7.1,0,13.2-3.7,24.7-15.3l10.3-10.3-9.8-6.5c-23.3-15.3-48.1-40.2-61.2-61.7-1.8-2.8-3.6-5.2-4-5.2-.3,0-5.4,4.8-11.3,10.7Z"/>
  <path class="cls-1" d="M196.02,464.97c0,18.1,.4,19.9,5.9,25.8,6.4,6.9,6.5,6.9,46.6,7.3,30.4,.2,36.4,.1,38.3-1.2,1.2-.8,2.2-1.1,2.2-.7s2-1.3,4.5-3.7c6.3-6.2,7.5-10.8,7.5-28.7v-14.3l-2.2,.4c-1.3,.3-3.4,.8-4.8,1.1-1.4,.4-3.5,.8-4.7,1s-3.4,.6-5,.9c-2.7,.6-7.6,1.3-15.8,2.2-4.9,.6-34.4,.5-37.7-.1-1.2-.3-5-.7-8.3-.9-3.3-.3-7.1-.8-8.5-1.1s-5-1-8-1.6c-3-.5-6.5-1.4-7.7-1.9l-2.3-1v16.5Z"/>
</svg>